Coordinates
version=1
nRows=16
nColumns=40
inDegrees=yes

Units are S.I. units (second, meters, Newtons, ...)
Angles are in degrees.

endheader
time	pelvis_tilt	pelvis_list	pelvis_rotation	pelvis_tx	pelvis_ty	pelvis_tz	hip_flexion_r	hip_adduction_r	hip_rotation_r	knee_angle_r	knee_angle_r_beta	ankle_angle_r	subtalar_angle_r	mtp_angle_r	hip_flexion_l	hip_adduction_l	hip_rotation_l	knee_angle_l	knee_angle_l_beta	ankle_angle_l	subtalar_angle_l	mtp_angle_l	lumbar_extension	lumbar_bending	lumbar_rotation	arm_flex_r	arm_add_r	arm_rot_r	elbow_flex_r	pro_sup_r	wrist_flex_r	wrist_dev_r	arm_flex_l	arm_add_l	arm_rot_l	elbow_flex_l	pro_sup_l	wrist_flex_l	wrist_dev_l
      9.33000000	     -2.39905791	     -2.77280786	     -3.72357983	      0.88711998	      0.92618181	      0.44327572	     26.15190746	     -1.42124935	    -13.69672631	     13.09163091	     13.09163091	      1.66714819	      4.45686210	      7.14431121	     -0.77801324	     -2.38815000	    -13.83672425	     12.66580738	     12.66580738	     15.84248501	    -10.31130356	     -6.19598968	     -9.80810403	      6.63933998	      3.16155381	    -14.94579941	    -11.85015031	    -10.23086165	     23.95908576	     46.93301889	      0.00000000	      0.00000000	     22.32716781	    -16.08801642	     -7.56578273	     79.24660369	     47.47916167	      0.00000000	      0.00000000
      9.34200000	     -2.46202256	     -2.83149147	     -3.81585201	      0.88914080	      0.92460025	      0.44525743	     25.70843829	     -1.05723545	    -14.20044343	     11.88051055	     11.88051055	      1.03812524	      4.95329940	      7.54193217	     -1.47805334	     -2.52285477	    -13.91502816	     12.51493035	     12.51493035	     16.34748500	    -10.20059413	     -6.15161505	     -9.56489883	      6.67712290	      3.25879557	    -15.58804673	    -11.82564403	    -10.27548268	     23.93600715	     46.92769548	      0.00000000	      0.00000000	     22.49472293	    -15.97224245	     -7.64993535	     79.99643039	     47.50749807	      0.00000000	      0.00000000
      9.35400000	     -2.46517798	     -2.88867302	     -3.88391449	      0.89125074	      0.92303483	      0.44735249	     25.30664886	     -0.77131188	    -14.72294477	     11.29195818	     11.29195818	      0.37514067	      5.25020231	      7.04209407	     -2.21988133	     -2.69298554	    -14.17310063	     12.44825806	     12.44825806	     17.18683908	     -9.60745830	     -5.58986415	     -9.48782233	      6.75323812	      3.26310196	    -16.29153389	    -11.80254487	    -10.42088560	     24.42665250	     46.90078852	      0.00000000	      0.00000000	     22.38986133	    -16.00288804	     -7.89521513	     81.39170122	     47.57023737	      0.00000000	      0.00000000
      9.36600000	     -2.55687997	     -3.01611002	     -3.92702477	      0.89345276	      0.92133364	      0.44973849	     25.00849046	     -0.39559157	    -14.93791267	     11.04515072	     11.04515072	     -0.74535020	      4.82286826	      4.97372017	     -2.72568076	     -3.02166617	    -14.43876884	     12.71872413	     12.71872413	     18.39948941	     -8.87264113	     -4.28583669	     -9.25114857	      6.86097317	      3.14830358	    -16.77554363	    -11.78016531	    -10.50824651	     25.00050420	     46.86034653	      0.00000000	      0.00000000	     22.04767234	    -15.98632405	     -8.22757172	     82.63691149	     47.64964380	      0.00000000	      0.00000000
      9.37800000	     -2.62688231	     -3.22605932	     -3.94357196	      0.89563145	      0.91975905	      0.45226504	     24.83227806	     -0.03517940	    -15.20969186	     11.44103338	     11.44103338	     -1.04174704	      4.48859232	      4.59230832	     -3.27900981	     -3.40483997	    -14.38318424	     12.86301698	     12.86301698	     18.89309599	     -8.97167217	     -4.18993263	     -9.01782165	      7.05599355	      3.18522985	    -16.93861483	    -11.75684296	    -10.49557322	     24.94189929	     46.85814010	      0.00000000	      0.00000000	     22.01192790	    -15.88715775	     -8.24549609	     82.83068810	     47.65883285	      0.00000000	      0.00000000
      9.39000000	     -2.66565641	     -3.52973025	     -3.95585077	      0.89788530	      0.91839153	      0.45497935	     24.61767419	      0.40113876	    -15.44196358	     12.07025350	     12.07025350	     -1.18280338	      4.04562651	      4.13428699	     -3.81906617	     -3.91827038	    -14.29540809	     13.11394750	     13.11394750	     19.30975126	     -9.12446187	     -4.07788994	     -8.84485969	      7.36467847	      3.24420868	    -16.95297074	    -11.63301567	    -10.47870010	     24.94051865	     46.85515495	      0.00000000	      0.00000000	     21.83892347	    -15.72759202	     -8.22659031	     82.99918430	     47.66219239	      0.00000000	      0.00000000
      9.40200000	     -2.61436345	     -3.82992266	     -3.97193464	      0.90007935	      0.91721035	      0.45786913	     24.41246018	      0.80804280	    -15.45288244	     13.03555594	     13.03555594	     -1.18488837	      3.37817719	      3.32777817	     -4.25252554	     -4.49225824	    -14.21623793	     13.76938340	     13.76938340	     19.75931151	     -9.41621172	     -3.88088404	     -8.81463554	      7.64235943	      3.36231165	    -16.78393420	    -11.58564728	    -10.47078868	     24.99423927	     46.85234816	      0.00000000	      0.00000000	     21.55747359	    -15.48583323	     -8.19286830	     83.21449824	     47.66523480	      0.00000000	      0.00000000
      9.41400000	     -2.89203105	     -3.89905210	     -3.93335936	      0.90184992	      0.91551086	      0.46084546	     24.79362686	      1.02066066	    -14.84741765	     14.33609296	     14.33609296	     -1.71882168	      1.52205873	      0.56439897	     -3.75791792	     -5.01218138	    -14.11507951	     15.48257210	     15.48257210	     20.75574288	     -9.62366086	     -2.83587956	     -8.40897267	      7.61043334	      3.31778981	    -16.47836736	    -11.51849326	    -10.48578250	     25.04938070	     46.84867767	      0.00000000	      0.00000000	     21.10021043	    -15.37347403	     -8.36929342	     83.93185514	     47.69970533	      0.00000000	      0.00000000
      9.42600000	     -2.91178331	     -4.16594278	     -3.90206354	      0.90375051	      0.91468508	      0.46396880	     24.64902979	      1.43598535	    -14.54205487	     15.28459124	     15.28459124	     -1.96134448	      0.34792069	     -1.62977049	     -3.56229078	     -5.72188781	    -13.91494328	     17.16600153	     17.16600153	     21.33673022	    -10.11248760	     -2.02112150	     -8.34699452	      7.78949749	      3.23298378	    -15.80377265	    -11.42479223	    -10.45313698	     25.05477593	     46.84742670	      0.00000000	      0.00000000	     20.59822376	    -15.26158636	     -8.49972001	     84.06803700	     47.71961129	      0.00000000	      0.00000000
      9.43800000	     -2.75337438	     -4.40870404	     -3.86939056	      0.90568497	      0.91452543	      0.46711471	     24.12696458	      1.89828913	    -14.03301593	     15.82060932	     15.82060932	     -2.78311468	     -1.22001572	     -5.55466605	     -3.42823146	     -6.40309863	    -13.62941986	     19.10718467	     19.10718467	     22.02530737	    -10.60990190	     -0.31808756	     -8.46509673	      7.94400199	      3.02079504	    -14.64937680	    -11.42387798	    -10.30659947	     24.36554988	     46.86211497	      0.00000000	      0.00000000	     19.80994361	    -15.06863541	     -8.87723853	     84.14068677	     47.78235293	      0.00000000	      0.00000000
      9.45000000	     -2.71202076	     -4.66761605	     -3.79711071	      0.90719451	      0.91454183	      0.47020830	     23.92889386	      2.23118449	    -13.97688834	     16.81405809	     16.81405809	     -2.10149502	     -1.63708374	     -5.97447733	     -2.81227116	     -7.17504130	    -13.15753861	     21.55198323	     21.55198323	     21.67690643	    -11.81270089	     -0.60079063	     -8.51997645	      8.13016501	      3.12491249	    -13.79189540	    -11.34957848	    -10.25707992	     24.51944818	     46.85713463	      0.00000000	      0.00000000	     19.31370194	    -14.74921945	     -8.72780684	     83.70708128	     47.76827234	      0.00000000	      0.00000000
      9.46200000	     -2.67966403	     -4.90119138	     -3.70326627	      0.90847635	      0.91492201	      0.47325392	     23.67002698	      2.56456256	    -13.84804000	     17.62051045	     17.62051045	     -1.34871124	     -2.08351194	     -6.22696397	     -1.89990012	     -7.94935476	    -12.53351337	     24.44316577	     24.44316577	     21.00456085	    -13.27063838	     -0.93461025	     -8.57160850	      8.28966245	      3.18443838	    -12.72885024	    -11.30309919	    -10.18245050	     24.62371772	     46.85447777	      0.00000000	      0.00000000	     18.73683992	    -14.40448235	     -8.57287884	     82.99330349	     47.74837138	      0.00000000	      0.00000000
      9.47400000	     -2.62536163	     -5.14070808	     -3.57854584	      0.90950252	      0.91565583	      0.47623318	     23.29159916	      2.90743087	    -13.79533851	     18.20274630	     18.20274630	     -0.54317810	     -2.35347550	     -6.34638207	     -0.72463582	     -8.76033173	    -11.81738145	     27.76137886	     27.76137886	     20.01684399	    -14.82813070	     -1.27510767	     -8.67012499	      8.45404832	      3.22468250	    -11.48303882	    -11.28825737	    -10.07976591	     24.70684803	     46.85233597	      0.00000000	      0.00000000	     18.15581771	    -14.02966072	     -8.39708917	     82.02779309	     47.72250361	      0.00000000	      0.00000000
      9.48600000	     -2.54474740	     -5.34990387	     -3.40847633	      0.91034208	      0.91669071	      0.47911727	     22.81866702	      3.20934427	    -13.83586500	     18.64049713	     18.64049713	      0.46812555	     -2.40042727	     -5.87538936	      0.64022416	     -9.54290183	    -11.00744685	     31.34755810	     31.34755810	     18.77351991	    -16.33295535	     -1.50244854	     -8.76259428	      8.57777292	      3.33641309	     -9.93217073	    -11.29425214	     -9.76612143	     24.23361200	     46.85576152	      0.00000000	      0.00000000	     17.76249922	    -13.53913641	     -8.21892103	     80.22151770	     47.69682977	      0.00000000	      0.00000000
      9.49800000	     -2.50477126	     -5.60297972	     -3.21020730	      0.91093205	      0.91784045	      0.48189376	     22.21631001	      3.56355991	    -14.03471267	     18.69580822	     18.69580822	      1.21146312	     -2.18569609	     -5.97463028	      2.30363228	    -10.45126933	    -10.31300044	     35.27210130	     35.27210130	     17.52324296	    -17.35499928	     -1.41817436	     -8.87329139	      8.75802930	      3.32338047	     -8.51801494	    -11.32444619	     -9.66904701	     24.58301858	     46.84377922	      0.00000000	      0.00000000	     17.05952956	    -13.13081967	     -7.91499090	     79.10362109	     47.65847549	      0.00000000	      0.00000000
      9.51000000	     -2.43706119	     -5.79303896	     -2.96204875	      0.91133057	      0.91914705	      0.48445535	     21.56740065	      3.81091300	    -14.37474878	     18.71294854	     18.71294854	      2.10216984	     -1.69248186	     -5.65614070	      4.16819866	    -11.21529852	     -9.37572045	     39.43679403	     39.43679403	     16.98743139	    -17.95241179	      0.98549476	     -8.94139385	      8.88540873	      3.43924636	     -6.90203696	    -11.42644483	     -9.19635353	     24.50995109	     46.81395900	      0.00000000	      0.00000000	     16.88523505	    -12.56120297	     -7.52791508	     76.43459801	     47.60690625	      0.00000000	      0.00000000
